hand_closed coordinate motion generated from LLM joint_angles
version=1
nRows=44
nColumns=29
inDegrees=yes
endheader
time	elbow_flexion	pro_sup	rotaxis_auxprfem_r3	deviation	auxprrud_auxdrfem_r3	auxdrfem_auxdrrud_r1	MCP2_lateral	MCP2_flex	PIP_flex	DIP_flex	MCP2M_lateral	MCP2M_flex	MPIP_flex	MDIP_flex	RCP2M_lateral	RCP2M_flex	RPIP_flex	RDIP_flex	LCP2M_lateral	LCP2M_flex	LPIP_flex	LDIP_flex	thumb_abd	thumb_flex	TCP2M_lateral	TCP2M_flex	TCP2M2_flex	flexion
0.000000	0.000000	0.000000	0.000000	0.000000	0.000000	0.000000	0.000000	0.000000	0.000000	0.000000	0.000000	0.000000	0.000000	0.000000	0.000000	0.000000	0.000000	0.000000	0.000000	0.000000	0.000000	0.000000	0.000000	0.000000	0.000000	0.000000	0.000000	0.000000
0.006667	0.000000	0.000000	0.000000	0.000000	0.000000	0.000000	0.000000	1.884818	1.884818	0.000000	0.000000	1.884818	1.884818	1.884818	0.000000	1.884818	1.884818	1.884818	0.000000	1.884818	1.884818	1.884818	0.000000	1.884818	0.000000	0.000000	0.000000	0.209424
0.013333	0.000000	0.000000	0.000000	0.000000	0.000000	0.000000	0.000000	3.768809	3.768809	0.000000	0.000000	3.768809	3.768809	3.768809	0.000000	3.768809	3.768809	3.768809	0.000000	3.768809	3.768809	3.768809	0.000000	3.768809	0.000000	0.000000	0.000000	0.418757
0.020000	0.000000	0.000000	0.000000	0.000000	0.000000	0.000000	0.000000	5.651147	5.651147	0.000000	0.000000	5.651147	5.651147	5.651147	0.000000	5.651147	5.651147	5.651147	0.000000	5.651147	5.651147	5.651147	0.000000	5.651147	0.000000	0.000000	0.000000	0.627905
0.026667	0.000000	0.000000	0.000000	0.000000	0.000000	0.000000	0.000000	7.531006	7.531006	0.000000	0.000000	7.531006	7.531006	7.531006	0.000000	7.531006	7.531006	7.531006	0.000000	7.531006	7.531006	7.531006	0.000000	7.531006	0.000000	0.000000	0.000000	0.836778
0.033333	0.000000	0.000000	0.000000	0.000000	0.000000	0.000000	0.000000	9.407562	9.407562	0.000000	0.000000	9.407562	9.407562	9.407562	0.000000	9.407562	9.407562	9.407562	0.000000	9.407562	9.407562	9.407562	0.000000	9.407562	0.000000	0.000000	0.000000	1.045285
0.040000	0.000000	0.000000	0.000000	0.000000	0.000000	0.000000	0.000000	11.279991	11.279991	0.000000	0.000000	11.279991	11.279991	11.279991	0.000000	11.279991	11.279991	11.279991	0.000000	11.279991	11.279991	11.279991	0.000000	11.279991	0.000000	0.000000	0.000000	1.253332
0.046667	0.000000	0.000000	0.000000	0.000000	0.000000	0.000000	0.000000	13.147473	13.147473	0.000000	0.000000	13.147473	13.147473	13.147473	0.000000	13.147473	13.147473	13.147473	0.000000	13.147473	13.147473	13.147473	0.000000	13.147473	0.000000	0.000000	0.000000	1.460830
0.053333	0.000000	0.000000	0.000000	0.000000	0.000000	0.000000	0.000000	15.009187	15.009187	0.000000	0.000000	15.009187	15.009187	15.009187	0.000000	15.009187	15.009187	15.009187	0.000000	15.009187	15.009187	15.009187	0.000000	15.009187	0.000000	0.000000	0.000000	1.667687
0.060000	0.000000	0.000000	0.000000	0.000000	0.000000	0.000000	0.000000	16.864318	16.864318	0.000000	0.000000	16.864318	16.864318	16.864318	0.000000	16.864318	16.864318	16.864318	0.000000	16.864318	16.864318	16.864318	0.000000	16.864318	0.000000	0.000000	0.000000	1.873813
0.066667	0.000000	0.000000	0.000000	0.000000	0.000000	0.000000	0.000000	18.712052	18.712052	0.000000	0.000000	18.712052	18.712052	18.712052	0.000000	18.712052	18.712052	18.712052	0.000000	18.712052	18.712052	18.712052	0.000000	18.712052	0.000000	0.000000	0.000000	2.079117
0.073333	0.000000	0.000000	0.000000	0.000000	0.000000	0.000000	0.000000	20.551578	20.551578	0.000000	0.000000	20.551578	20.551578	20.551578	0.000000	20.551578	20.551578	20.551578	0.000000	20.551578	20.551578	20.551578	0.000000	20.551578	0.000000	0.000000	0.000000	2.283509
0.080000	0.000000	0.000000	0.000000	0.000000	0.000000	0.000000	0.000000	22.382090	22.382090	0.000000	0.000000	22.382090	22.382090	22.382090	0.000000	22.382090	22.382090	22.382090	0.000000	22.382090	22.382090	22.382090	0.000000	22.382090	0.000000	0.000000	0.000000	2.486899
0.086667	0.000000	0.000000	0.000000	0.000000	0.000000	0.000000	0.000000	24.202784	24.202784	0.000000	0.000000	24.202784	24.202784	24.202784	0.000000	24.202784	24.202784	24.202784	0.000000	24.202784	24.202784	24.202784	0.000000	24.202784	0.000000	0.000000	0.000000	2.689198
0.093333	0.000000	0.000000	0.000000	0.000000	0.000000	0.000000	0.000000	26.012862	26.012862	0.000000	0.000000	26.012862	26.012862	26.012862	0.000000	26.012862	26.012862	26.012862	0.000000	26.012862	26.012862	26.012862	0.000000	26.012862	0.000000	0.000000	0.000000	2.890318
0.100000	0.000000	0.000000	0.000000	0.000000	0.000000	0.000000	0.000000	27.811529	27.811529	0.000000	0.000000	27.811529	27.811529	27.811529	0.000000	27.811529	27.811529	27.811529	0.000000	27.811529	27.811529	27.811529	0.000000	27.811529	0.000000	0.000000	0.000000	3.090170
0.106667	0.000000	0.000000	0.000000	0.000000	0.000000	0.000000	0.000000	29.597998	29.597998	0.000000	0.000000	29.597998	29.597998	29.597998	0.000000	29.597998	29.597998	29.597998	0.000000	29.597998	29.597998	29.597998	0.000000	29.597998	0.000000	0.000000	0.000000	3.288666
0.113333	0.000000	0.000000	0.000000	0.000000	0.000000	0.000000	0.000000	31.371484	31.371484	0.000000	0.000000	31.371484	31.371484	31.371484	0.000000	31.371484	31.371484	31.371484	0.000000	31.371484	31.371484	31.371484	0.000000	31.371484	0.000000	0.000000	0.000000	3.485720
0.120000	0.000000	0.000000	0.000000	0.000000	0.000000	0.000000	0.000000	33.131210	33.131210	0.000000	0.000000	33.131210	33.131210	33.131210	0.000000	33.131210	33.131210	33.131210	0.000000	33.131210	33.131210	33.131210	0.000000	33.131210	0.000000	0.000000	0.000000	3.681246
0.126667	0.000000	0.000000	0.000000	0.000000	0.000000	0.000000	0.000000	34.876403	34.876403	0.000000	0.000000	34.876403	34.876403	34.876403	0.000000	34.876403	34.876403	34.876403	0.000000	34.876403	34.876403	34.876403	0.000000	34.876403	0.000000	0.000000	0.000000	3.875156
0.133333	0.000000	0.000000	0.000000	0.000000	0.000000	0.000000	0.000000	36.606298	36.606298	0.000000	0.000000	36.606298	36.606298	36.606298	0.000000	36.606298	36.606298	36.606298	0.000000	36.606298	36.606298	36.606298	0.000000	36.606298	0.000000	0.000000	0.000000	4.067366
0.140000	0.000000	0.000000	0.000000	0.000000	0.000000	0.000000	0.000000	38.320136	38.320136	0.000000	0.000000	38.320136	38.320136	38.320136	0.000000	38.320136	38.320136	38.320136	0.000000	38.320136	38.320136	38.320136	0.000000	38.320136	0.000000	0.000000	0.000000	4.257793
0.146667	0.000000	0.000000	0.000000	0.000000	0.000000	0.000000	0.000000	40.017166	40.017166	0.000000	0.000000	40.017166	40.017166	40.017166	0.000000	40.017166	40.017166	40.017166	0.000000	40.017166	40.017166	40.017166	0.000000	40.017166	0.000000	0.000000	0.000000	4.446352
0.153333	0.000000	0.000000	0.000000	0.000000	0.000000	0.000000	0.000000	41.696643	41.696643	0.000000	0.000000	41.696643	41.696643	41.696643	0.000000	41.696643	41.696643	41.696643	0.000000	41.696643	41.696643	41.696643	0.000000	41.696643	0.000000	0.000000	0.000000	4.632960
0.160000	0.000000	0.000000	0.000000	0.000000	0.000000	0.000000	0.000000	43.357831	43.357831	0.000000	0.000000	43.357831	43.357831	43.357831	0.000000	43.357831	43.357831	43.357831	0.000000	43.357831	43.357831	43.357831	0.000000	43.357831	0.000000	0.000000	0.000000	4.817537
0.166667	0.000000	0.000000	0.000000	0.000000	0.000000	0.000000	0.000000	45.000000	45.000000	0.000000	0.000000	45.000000	45.000000	45.000000	0.000000	45.000000	45.000000	45.000000	0.000000	45.000000	45.000000	45.000000	0.000000	45.000000	0.000000	0.000000	0.000000	5.000000
0.173333	0.000000	0.000000	0.000000	0.000000	0.000000	0.000000	0.000000	46.622431	46.622431	0.000000	0.000000	46.622431	46.622431	46.622431	0.000000	46.622431	46.622431	46.622431	0.000000	46.622431	46.622431	46.622431	0.000000	46.622431	0.000000	0.000000	0.000000	5.180270
0.180000	0.000000	0.000000	0.000000	0.000000	0.000000	0.000000	0.000000	48.224412	48.224412	0.000000	0.000000	48.224412	48.224412	48.224412	0.000000	48.224412	48.224412	48.224412	0.000000	48.224412	48.224412	48.224412	0.000000	48.224412	0.000000	0.000000	0.000000	5.358268
0.186667	0.000000	0.000000	0.000000	0.000000	0.000000	0.000000	0.000000	49.805239	49.805239	0.000000	0.000000	49.805239	49.805239	49.805239	0.000000	49.805239	49.805239	49.805239	0.000000	49.805239	49.805239	49.805239	0.000000	49.805239	0.000000	0.000000	0.000000	5.533915
0.193333	0.000000	0.000000	0.000000	0.000000	0.000000	0.000000	0.000000	51.364221	51.364221	0.000000	0.000000	51.364221	51.364221	51.364221	0.000000	51.364221	51.364221	51.364221	0.000000	51.364221	51.364221	51.364221	0.000000	51.364221	0.000000	0.000000	0.000000	5.707136
0.200000	0.000000	0.000000	0.000000	0.000000	0.000000	0.000000	0.000000	52.900673	52.900673	0.000000	0.000000	52.900673	52.900673	52.900673	0.000000	52.900673	52.900673	52.900673	0.000000	52.900673	52.900673	52.900673	0.000000	52.900673	0.000000	0.000000	0.000000	5.877853
0.206667	0.000000	0.000000	0.000000	0.000000	0.000000	0.000000	0.000000	54.413920	54.413920	0.000000	0.000000	54.413920	54.413920	54.413920	0.000000	54.413920	54.413920	54.413920	0.000000	54.413920	54.413920	54.413920	0.000000	54.413920	0.000000	0.000000	0.000000	6.045991
0.213333	0.000000	0.000000	0.000000	0.000000	0.000000	0.000000	0.000000	55.903300	55.903300	0.000000	0.000000	55.903300	55.903300	55.903300	0.000000	55.903300	55.903300	55.903300	0.000000	55.903300	55.903300	55.903300	0.000000	55.903300	0.000000	0.000000	0.000000	6.211478
0.220000	0.000000	0.000000	0.000000	0.000000	0.000000	0.000000	0.000000	57.368159	57.368159	0.000000	0.000000	57.368159	57.368159	57.368159	0.000000	57.368159	57.368159	57.368159	0.000000	57.368159	57.368159	57.368159	0.000000	57.368159	0.000000	0.000000	0.000000	6.374240
0.226667	0.000000	0.000000	0.000000	0.000000	0.000000	0.000000	0.000000	58.807854	58.807854	0.000000	0.000000	58.807854	58.807854	58.807854	0.000000	58.807854	58.807854	58.807854	0.000000	58.807854	58.807854	58.807854	0.000000	58.807854	0.000000	0.000000	0.000000	6.534206
0.233333	0.000000	0.000000	0.000000	0.000000	0.000000	0.000000	0.000000	60.221755	60.221755	0.000000	0.000000	60.221755	60.221755	60.221755	0.000000	60.221755	60.221755	60.221755	0.000000	60.221755	60.221755	60.221755	0.000000	60.221755	0.000000	0.000000	0.000000	6.691306
0.240000	0.000000	0.000000	0.000000	0.000000	0.000000	0.000000	0.000000	61.609240	61.609240	0.000000	0.000000	61.609240	61.609240	61.609240	0.000000	61.609240	61.609240	61.609240	0.000000	61.609240	61.609240	61.609240	0.000000	61.609240	0.000000	0.000000	0.000000	6.845471
0.246667	0.000000	0.000000	0.000000	0.000000	0.000000	0.000000	0.000000	62.969701	62.969701	0.000000	0.000000	62.969701	62.969701	62.969701	0.000000	62.969701	62.969701	62.969701	0.000000	62.969701	62.969701	62.969701	0.000000	62.969701	0.000000	0.000000	0.000000	6.996633
0.253333	0.000000	0.000000	0.000000	0.000000	0.000000	0.000000	0.000000	64.302541	64.302541	0.000000	0.000000	64.302541	64.302541	64.302541	0.000000	64.302541	64.302541	64.302541	0.000000	64.302541	64.302541	64.302541	0.000000	64.302541	0.000000	0.000000	0.000000	7.144727
0.260000	0.000000	0.000000	0.000000	0.000000	0.000000	0.000000	0.000000	65.607176	65.607176	0.000000	0.000000	65.607176	65.607176	65.607176	0.000000	65.607176	65.607176	65.607176	0.000000	65.607176	65.607176	65.607176	0.000000	65.607176	0.000000	0.000000	0.000000	7.289686
0.266667	0.000000	0.000000	0.000000	0.000000	0.000000	0.000000	0.000000	66.883034	66.883034	0.000000	0.000000	66.883034	66.883034	66.883034	0.000000	66.883034	66.883034	66.883034	0.000000	66.883034	66.883034	66.883034	0.000000	66.883034	0.000000	0.000000	0.000000	7.431448
0.273333	0.000000	0.000000	0.000000	0.000000	0.000000	0.000000	0.000000	68.129555	68.129555	0.000000	0.000000	68.129555	68.129555	68.129555	0.000000	68.129555	68.129555	68.129555	0.000000	68.129555	68.129555	68.129555	0.000000	68.129555	0.000000	0.000000	0.000000	7.569951
0.280000	0.000000	0.000000	0.000000	0.000000	0.000000	0.000000	0.000000	69.346192	69.346192	0.000000	0.000000	69.346192	69.346192	69.346192	0.000000	69.346192	69.346192	69.346192	0.000000	69.346192	69.346192	69.346192	0.000000	69.346192	0.000000	0.000000	0.000000	7.705132
0.286667	0.000000	0.000000	0.000000	0.000000	0.000000	0.000000	0.000000	70.532411	70.532411	0.000000	0.000000	70.532411	70.532411	70.532411	0.000000	70.532411	70.532411	70.532411	0.000000	70.532411	70.532411	70.532411	0.000000	70.532411	0.000000	0.000000	0.000000	7.836935
